<svg width="124" height="211" viewBox="0 0 124 211" fill="none" xmlns="http://www.w3.org/2000/svg">
<g clip-path="url(#clip0_1_9)">
<path d="M0 180.549C16.1518 178.939 33.0254 177.887 50.422 177.505C60.6816 177.277 70.7646 177.299 80.6413 177.52C86.5039 158.871 89.5163 138.98 89.0596 118.354C88.0359 72.7992 70.4773 31.5095 42.2761 0C47.1666 15.8688 50.0169 32.6493 50.4072 50.0697C51.5341 100.5 32.1858 146.598 0 180.549Z" fill="#0074FF"/>
<path d="M88.9565 75.4244C93.1473 90.2636 95.5484 105.86 95.9093 121.986C96.3438 141.341 93.8028 160.07 88.7061 177.74C102.582 178.093 110.441 178.733 123.588 179.968C123.934 175.35 124.074 170.674 123.971 165.945C123.19 131.252 110.08 99.7423 88.9565 75.4244Z" fill="#0074FF"/>
<path d="M57.0948 184.741C37.6507 184.741 18.8474 185.638 0.972168 187.285C6.12042 200.764 31.4713 211 62 211C91.8068 211 116.694 201.235 122.637 188.226C102.008 185.976 79.9857 184.741 57.0948 184.741Z" fill="#0074FF"/>
</g>
<defs>
<clipPath id="clip0_1_9">
<rect width="124" height="211" fill="white"/>
</clipPath>
</defs>
</svg>
